<svg xmlns:svg="http://www.w3.org/2000/svg" xmlns="http://www.w3.org/2000/svg" version="1.1" width="180" height="120"><g transform="translate(0,-932.36218)"><path d="m90 10c-27.6 0-50 22.4-50 50 0 27.6 22.4 50 50 50 27.6 0 50-22.4 50-50 0-27.6-22.4-50-50-50zm0 10c9.2 0 17.8 3.1 24.5 8.4l-56.1 56.1C53.1 77.8 50 69.2 50 60 50 37.9 67.9 20 90 20zm31.6 15.5C126.9 42.2 130 50.8 130 60c0 22.1-17.9 40-40 40-9.2 0-17.8-3.1-24.5-8.4l56.1-56.1z" transform="translate(0,932.36218)" fill="#c0c0c0"/></g></svg>