<svg xmlns="http://www.w3.org/2000/svg" version="1.1" baseProfile="tiny" x="0" y="0" width="98" height="32" viewBox="0 0 98 32" xml:space="preserve"><path fill="#007BB5" d="M62.6 0H35.4C34.1 0 33 1 33 2.3v27.4c0 1.3 1.1 2.3 2.4 2.3h27.3c1.3 0 2.4-1 2.4-2.3V2.3C65 1 63.9 0 62.6 0z"/><path fill="#FFFFFF" d="M37.7 12h4.7v15.3h-4.7V12zM40.1 4.4c1.5 0 2.7 1.2 2.7 2.8 0 1.5-1.2 2.8-2.7 2.8 -1.5 0-2.8-1.2-2.8-2.8C37.4 5.6 38.6 4.4 40.1 4.4"/><path fill="#FFFFFF" d="M45.5 12H50v2.1h0.1c0.6-1.2 2.2-2.5 4.5-2.5 4.8 0 5.7 3.2 5.7 7.3v8.4h-4.7v-7.4c0-1.8 0-4-2.5-4 -2.5 0-2.8 1.9-2.8 3.9v7.6h-4.7V12z"/><path fill="#3B5999" d="M96.2 0H67.8c-1 0-1.8 0.8-1.8 1.8v28.5c0 1 0.8 1.8 1.8 1.8h15.3V19.6h-4.2v-4.8h4.2v-3.6c0-4.1 2.5-6.4 6.2-6.4C91.1 4.8 92.6 5 93 5v4.3l-2.6 0c-2 0-2.4 1-2.4 2.4v3.1h4.8l-0.6 4.8h-4.2V32h8.2c1 0 1.8-0.8 1.8-1.8V1.8C98 0.8 97.2 0 96.2 0z"/><path fill="#2AA9E0" d="M32 6.1c-1.2 0.5-2.4 0.9-3.8 1 1.4-0.8 2.4-2.1 2.9-3.6 -1.3 0.8-2.7 1.3-4.2 1.6C25.8 3.8 24 3 22.2 3c-3.6 0-6.6 2.9-6.6 6.6 0 0.5 0.1 1 0.2 1.5C10.3 10.8 5.5 8.2 2.2 4.2c-0.6 1-0.9 2.1-0.9 3.3 0 2.3 1.2 4.3 2.9 5.5 -1.1 0-2.1-0.3-3-0.8 0 0 0 0.1 0 0.1 0 3.2 2.3 5.8 5.3 6.4 -0.6 0.2-1.1 0.2-1.7 0.2 -0.4 0-0.8 0-1.2-0.1 0.8 2.6 3.3 4.5 6.1 4.6 -2.2 1.8-5.1 2.8-8.2 2.8 -0.5 0-1.1 0-1.6-0.1 2.9 1.9 6.4 3 10.1 3 12.1 0 18.7-10 18.7-18.7 0-0.3 0-0.6 0-0.8C30 8.5 31.1 7.4 32 6.1z"/></svg>